<svg aria-hidden="true" style="position:absolute;width:0;height:0" xmlns="http://www.w3.org/2000/svg" overflow="hidden"><defs><symbol id="icon-cart" viewBox="0 0 32 32"><path stroke-linejoin="round" stroke-linecap="round" stroke-width="2.667" d="M12.333 28.223a1.223 1.223 0 100-2.446 1.223 1.223 0 100 2.446zm13.444 0a1.223 1.223 0 100-2.446 1.223 1.223 0 100 2.446zM2.556 2.556h4.888L10.72 18.92a2.448 2.448 0 002.397 1.968h.049-.002 11.928a2.445 2.445 0 002.395-1.953l.003-.016 1.955-10.253H8.668"/></symbol><symbol id="icon-logo" viewBox="0 0 32 32"><path d="M16 0l2.254 8.324L24.65 2.54l-2.604 8.221 8.508-1.408-6.636 5.509 7.918 3.416-8.56 1.046 4.816 7.154-7.767-3.748.183 8.622L16 24l-4.507 7.352.183-8.622-7.768 3.749 4.816-7.155-8.56-1.047 7.919-3.415-6.636-5.509 8.508 1.408L7.352 2.54l6.396 5.784L16.001 0z"/></symbol><symbol id="icon-play" viewBox="0 0 32 32"><path d="M30.662 5.003C26.174 4.358 21.214 4 16 4S5.826 4.358 1.338 5.003C.478 8.369 0 12.089 0 16s.477 7.63 1.338 10.997C5.827 27.642 10.786 28 16 28s10.174-.358 14.662-1.003C31.522 23.631 32 19.911 32 16s-.477-7.63-1.338-10.997zM12 22V10l10 6-10 6z"/></symbol></defs></svg>