<svg aria-hidden="true" style="position: absolute; width: 0; height: 0; overflow: hidden;" version="1.1" xmlns="http://www.w3.org/2000/svg" xmlns:xlink="http://www.w3.org/1999/xlink">
<defs>
<symbol id="icon-cart" viewBox="0 0 32 32">
<path stroke-linejoin="round" stroke-linecap="round" stroke-miterlimit="4" stroke-width="2.6667" d="M12.333 28.223c0.675 0 1.223-0.547 1.223-1.223s-0.547-1.223-1.223-1.223v0c-0.675 0-1.223 0.547-1.223 1.223s0.547 1.223 1.223 1.223v0zM25.777 28.223c0.675 0 1.223-0.547 1.223-1.223s-0.547-1.223-1.223-1.223v0c-0.675 0-1.223 0.547-1.223 1.223s0.547 1.223 1.223 1.223v0zM2.556 2.556h4.888l3.276 16.364c0.23 1.13 1.216 1.968 2.397 1.968 0.016 0 0.033-0 0.049-0l-0.002 0h11.88c0.014 0 0.031 0 0.048 0 1.182 0 2.167-0.838 2.395-1.953l0.003-0.016 1.955-10.253h-20.777"></path>
</symbol>
<symbol id="icon-logo" viewBox="0 0 32 32">
<path d="M16 0l2.254 8.324 6.396-5.784-2.604 8.221 8.508-1.408-6.636 5.509 7.918 3.416-8.56 1.046 4.816 7.154-7.767-3.748 0.183 8.622-4.508-7.352-4.507 7.352 0.183-8.622-7.768 3.749 4.816-7.155-8.56-1.047 7.919-3.415-6.636-5.509 8.508 1.408-2.603-8.221 6.396 5.784 2.253-8.324z"></path>
</symbol>
<symbol id="icon-play" viewBox="0 0 32 32">
<path d="M30.662 5.003c-4.488-0.645-9.448-1.003-14.662-1.003s-10.174 0.358-14.662 1.003c-0.86 3.366-1.338 7.086-1.338 10.997s0.477 7.63 1.338 10.997c4.489 0.645 9.448 1.003 14.662 1.003s10.174-0.358 14.662-1.003c0.86-3.366 1.338-7.086 1.338-10.997s-0.477-7.63-1.338-10.997zM12 22v-12l10 6-10 6z"></path>
</symbol>
</defs>
</svg>
